<svg width="101" height="96" viewBox="0 0 101 96" fill="none" xmlns="http://www.w3.org/2000/svg">
<path d="M28.5184 9.53674e-06C22.7392 9.53674e-06 18.0352 4.70401 18.0352 10.4833C18.0352 16.2645 22.7392 20.9665 28.5184 20.9665C34.2977 20.9665 39.0017 16.2645 39.0017 10.4833C39.0017 4.70401 34.2977 9.53674e-06 28.5184 9.53674e-06Z" fill="#E84420"/>
<path d="M84.3604 55.8421C78.5811 55.8421 73.8771 60.5461 73.8771 66.3254C73.8771 72.1065 78.5811 76.8067 84.3604 76.8067C90.1396 76.8067 94.8417 72.1065 94.8417 66.3254C94.8417 60.5461 90.1396 55.8421 84.3604 55.8421ZM84.3604 82.6189C75.3747 82.6189 68.0649 75.311 68.0649 66.3254C68.0649 57.3397 75.3747 50.0299 84.3604 50.0299C93.346 50.0299 100.654 57.3397 100.654 66.3254C100.654 75.311 93.346 82.6189 84.3604 82.6189Z" fill="#E84420"/>
<path d="M72.4202 12.6252C63.8104 6.37707 53.5867 3.49228 43.458 3.99407C44.2349 5.77647 44.6883 7.72549 44.7774 9.76751C45.0835 9.75976 45.3896 9.73652 45.6957 9.73652C53.8851 9.73652 62.0493 12.2823 69.0065 17.3292C79.7687 25.1349 85.672 37.2321 85.4046 50.0828C87.4563 50.2126 89.4014 50.7183 91.1761 51.5397C91.9491 36.3021 85.1372 21.8511 72.4202 12.6252Z" fill="#E84420"/>
<path d="M62.1993 50.03C62.1993 59.8584 54.2328 67.8269 44.4024 67.8269C34.5759 67.8269 26.6074 59.8584 26.6074 50.03C26.6074 40.2035 34.5759 32.235 44.4024 32.235C54.2328 32.235 62.1993 40.2035 62.1993 50.03Z" fill="#E84420"/>
<path d="M54.0793 88.301C31.4582 93.1851 15.062 79.7706 8.83912 64.3044C3.58489 51.2405 4.62527 34.2185 16.9355 21.9277C15.5367 20.5134 14.4014 18.8433 13.5915 16.997C-1.37291 31.1477 -2.7039 51.1843 3.44734 66.4742C9.5637 81.677 24.2589 95.1535 44.6693 95.1535C48.0617 95.1516 51.6149 94.7816 55.3095 93.9814C64.3165 92.0343 72.1862 87.6171 78.2561 81.4271C76.3768 80.6676 74.6757 79.5633 73.2208 78.1974C68.0518 83.1475 61.515 86.6929 54.0793 88.301Z" fill="#E84420"/>
</svg>
