<svg width="74" height="74" viewBox="0 0 74 74" fill="none" xmlns="http://www.w3.org/2000/svg">
<path d="M36.9509 0C16.5355 0 0 16.5355 0 36.9509C0 53.3017 10.5772 67.1121 25.2652 72.0081C27.1127 72.3314 27.8055 71.2228 27.8055 70.2529C27.8055 69.3753 27.7594 66.4654 27.7594 63.3708C18.4754 65.0798 16.0736 61.1075 15.3346 59.0291C14.9189 57.9667 13.1176 54.6873 11.5472 53.8097C10.2539 53.1169 8.40633 51.4079 11.501 51.3617C14.4108 51.3156 16.4893 54.0407 17.1822 55.1492C20.5077 60.738 25.8194 59.1676 27.9441 58.1977C28.2674 55.7959 29.2374 54.1792 30.2997 53.2555C22.0782 52.3317 13.4871 49.1447 13.4871 35.011C13.4871 30.9926 14.9189 27.667 17.2745 25.0804C16.905 24.1566 15.6118 20.3692 17.644 15.2884C17.644 15.2884 20.7387 14.3185 27.8055 19.0759C30.7616 18.2445 33.9024 17.8288 37.0433 17.8288C40.1841 17.8288 43.3249 18.2445 46.281 19.0759C53.3478 14.2723 56.4425 15.2884 56.4425 15.2884C58.4748 20.3692 57.1815 24.1566 56.812 25.0804C59.1676 27.667 60.5995 30.9464 60.5995 35.011C60.5995 49.1909 51.9622 52.3317 43.7406 53.2555C45.0801 54.4102 46.2348 56.6272 46.2348 60.0914C46.2348 65.0336 46.1886 69.0058 46.1886 70.2529C46.1886 71.2228 46.8814 72.3776 48.729 72.0081C56.0644 69.5317 62.4386 64.8173 66.9543 58.5285C71.47 52.2396 73.8998 44.693 73.9018 36.9509C73.9018 16.5355 57.3663 0 36.9509 0Z" fill="#E84420"/>
</svg>
