<svg width="81" height="77" viewBox="0 0 81 77" fill="none" xmlns="http://www.w3.org/2000/svg">
<path fill-rule="evenodd" clip-rule="evenodd" d="M36.765 0.799123C39.0876 -0.26642 41.7598 -0.266329 44.0824 0.799123L75.7318 15.3196C82.5109 18.4298 82.5513 28.0219 75.8539 31.2103V62.638C78.1681 63.8539 79.7484 66.2808 79.7484 69.0765C79.7479 73.0904 76.492 76.345 72.4779 76.345C68.4642 76.3446 65.2099 73.0901 65.2094 69.0765C65.2094 66.2801 66.7897 63.8527 69.1049 62.637V34.3099L44.0824 45.7894C41.7597 46.8549 39.0877 46.855 36.765 45.7894L5.11465 31.2698C-1.70484 28.1405 -1.70493 18.4488 5.11465 15.3196L36.765 0.799123ZM53.849 47.0647C55.3981 46.3541 57.1818 46.3531 58.7309 47.0638C63.2791 49.1508 63.2784 55.6147 58.7299 57.7015L43.4828 64.6966C41.5403 65.5876 39.3052 65.5877 37.3627 64.6966L22.1166 57.7015C17.568 55.6146 17.5671 49.1507 22.1156 47.0638C23.6646 46.3533 25.4466 46.3542 26.9955 47.0647L39.4027 52.7562C40.0502 53.0531 40.7953 53.0531 41.4428 52.7562L53.849 47.0647ZM41.268 6.93291C40.7322 6.68727 40.1152 6.68726 39.5795 6.93291L7.9291 21.4544C6.35567 22.1767 6.35541 24.414 7.9291 25.136L39.5795 39.6556C40.1153 39.9013 40.7321 39.9013 41.268 39.6556L72.9193 25.136C74.4926 24.4139 74.4922 22.1769 72.9193 21.4544L41.268 6.93291Z" fill="#E84420"/>
</svg>
