<svg width="50" height="65" viewBox="0 0 50 65" fill="none" xmlns="http://www.w3.org/2000/svg">
<path d="M24.8857 54.3027C31.6069 54.3027 37.3824 56.8336 39.9033 60.4531C41.2806 62.4307 39.3015 64.5303 36.8916 64.5303H12.8799C10.47 64.5303 8.49091 62.4307 9.86816 60.4531C12.3891 56.8336 18.1645 54.3027 24.8857 54.3027ZM24.8857 0C38.6296 2.82123e-05 49.7715 11.1419 49.7715 24.8857C49.7713 38.6294 38.6295 49.7705 24.8857 49.7705C11.142 49.7705 0.000173184 38.6294 0 24.8857C0 11.1419 11.1419 0 24.8857 0ZM24.8857 6.0498C14.4834 6.04981 6.05078 14.4834 6.05078 24.8857C6.05096 35.288 14.4835 43.7207 24.8857 43.7207C35.288 43.7207 43.7205 35.288 43.7207 24.8857C43.7207 14.4834 35.2881 6.0498 24.8857 6.0498ZM24.8857 18.042C28.6653 18.042 31.7295 21.1061 31.7295 24.8857C31.7293 28.6652 28.6652 31.7285 24.8857 31.7285C21.1063 31.7285 18.0422 28.6652 18.042 24.8857C18.042 21.1061 21.1061 18.042 24.8857 18.042Z" fill="#E84420"/>
</svg>
