<svg width="86" height="69" viewBox="0 0 86 69" fill="none" xmlns="http://www.w3.org/2000/svg">
<circle cx="28.6279" cy="39.5165" r="26.5026" stroke="#E84420" stroke-width="4.2488"/>
<path fill-rule="evenodd" clip-rule="evenodd" d="M64.6483 0.517838C65.0395 0.126853 65.5685 -0.0426032 66.079 0.00904901C66.1046 0.00717501 66.1303 0.00611932 66.1561 0.00611932H84.4413C85.4038 0.00635279 85.8697 1.18435 85.1678 1.84303L75.4579 10.9563C75.261 11.141 75.0003 11.2434 74.7303 11.2434H58.9305L29.8798 40.2942C29.1884 40.9856 28.0672 40.9856 27.3758 40.2942C26.6847 39.6028 26.6846 38.4816 27.3758 37.7903L64.6483 0.517838Z" fill="#F0A698"/>
<line x1="62.4129" y1="18.5456" x2="82.8506" y2="18.5456" stroke="#E84420" stroke-width="3.54067" stroke-linecap="round"/>
<circle cx="6.93079" cy="6.93079" r="6.93079" transform="matrix(-1 0 0 1 35.5586 32.5856)" fill="#E84420"/>
</svg>
