<svg width="93" height="55" viewBox="0 0 93 55" fill="none" xmlns="http://www.w3.org/2000/svg">
<path fill-rule="evenodd" clip-rule="evenodd" d="M84.8096 0.616596C74.7199 -1.61529 65.0727 2.4185 58.5075 9.38183C51.9475 16.34 47.3244 25.3083 49.4187 36.1644C51.513 47.0205 59.4443 54.556 71.3486 54.556C82.881 54.5557 92.5468 45.8366 92.5471 34.704C92.547 23.5714 82.8814 14.8506 71.3486 14.8503C71.1549 14.8504 70.9611 14.8518 70.7686 14.8567C71.3102 13.6873 72.1206 12.5225 73.2894 11.3895C75.5325 9.21501 79.1813 7.07379 84.9769 5.35215C86.0462 5.03451 86.766 4.03387 86.7264 2.91904C86.6865 1.80455 85.8985 0.857574 84.8096 0.616596ZM67.3263 7.99346C66.4038 8.65851 64.0712 10.1692 61.7368 12.6455C56.6048 18.0891 53.0313 25.8647 54.7223 34.704C56.4133 43.5432 62.0687 49.6611 71.3486 49.6611C79.6737 49.6611 87.6519 42.7961 87.6522 34.704C87.6521 26.6115 80.5275 19.7455 71.3486 19.7452C70.1794 19.7453 69.038 19.8589 67.9388 20.0735C67.1727 20.2227 66.3812 19.9981 65.8084 19.468C65.2356 18.9376 64.9489 18.1657 65.0388 17.3902C65.4199 14.1013 66.8755 12.1491 69.9007 9.21629C69.5789 8.29381 68.2488 7.32842 67.3263 7.99346Z" fill="#E84420"/>
<path fill-rule="evenodd" clip-rule="evenodd" d="M35.9004 0.616596C25.8108 -1.61529 16.1635 2.4185 9.59831 9.38183C3.03837 16.34 -1.58475 25.3083 0.509543 36.1644C2.60383 47.0205 10.5351 54.556 22.4394 54.556C33.9718 54.5557 43.6376 45.8366 43.6379 34.704C43.6378 23.5714 33.9722 14.8506 22.4394 14.8503C22.2457 14.8504 22.0519 14.8518 21.8594 14.8567C22.401 13.6873 23.2115 12.5225 24.3802 11.3895C26.6233 9.21501 30.2721 7.07379 36.0677 5.35215C37.137 5.03451 37.8568 4.03387 37.8172 2.91904C37.7773 1.80455 36.9893 0.857574 35.9004 0.616596ZM18.4171 7.99346C17.4947 8.65851 15.162 10.1692 12.8276 12.6455C7.69562 18.0891 4.12211 25.8647 5.81309 34.704C7.50407 43.5432 13.1595 49.6611 22.4394 49.6611C30.7645 49.6611 38.7427 42.7961 38.743 34.704C38.7429 26.6115 31.6184 19.7455 22.4394 19.7452C21.2702 19.7453 20.1288 19.8589 19.0296 20.0735C18.2635 20.2227 17.4721 19.9981 16.8992 19.468C16.3264 18.9376 16.0397 18.1657 16.1296 17.3902C16.5107 14.1013 17.9663 12.1491 20.9915 9.21629C20.6697 8.29381 19.3396 7.32842 18.4171 7.99346Z" fill="#E84420"/>
</svg>
