<svg width="96" height="96" viewBox="0 0 96 96" fill="none" xmlns="http://www.w3.org/2000/svg">
<path fill-rule="evenodd" clip-rule="evenodd" d="M45.7994 16.5349C47.5727 16.4323 49.0946 17.788 49.1978 19.5612C49.3005 21.3345 47.9456 22.8562 46.1725 22.9597C40.6711 23.2792 35.4348 25.4343 31.3023 29.0798C27.1697 32.7257 24.3785 37.653 23.3756 43.072C22.373 48.4906 23.2162 54.0893 25.7701 58.9724C28.3245 63.8555 32.4434 67.7415 37.4664 70.0085C42.4895 72.2754 48.1283 72.7943 53.4801 71.4792C58.8316 70.1639 63.5887 67.0914 66.9889 62.7546C70.3889 58.4176 72.2369 53.0643 72.2369 47.5534C72.2374 45.7771 73.6782 44.3366 75.4547 44.3366C77.2304 44.3375 78.671 45.7776 78.6715 47.5534C78.6715 54.5037 76.3404 61.2546 72.0523 66.7243C67.764 72.194 61.7637 76.0675 55.0143 77.7263C48.2652 79.3847 41.1546 78.7333 34.8199 75.8747C28.4848 73.0156 23.2904 68.1135 20.0689 61.9548C16.8476 55.7961 15.7837 48.7344 17.0484 41.9001C18.3133 35.0659 21.8335 28.8526 27.0455 24.2546C32.2575 19.6568 38.861 16.9377 45.7994 16.5349ZM69.1676 20.8796C70.1723 19.4143 72.1758 19.0409 73.6412 20.0456C75.1055 21.0505 75.4792 23.0523 74.4752 24.5173L51.0875 56.3796C50.5469 57.1679 49.6828 57.675 48.731 57.7634C47.779 57.8514 46.836 57.5105 46.1598 56.8347L34.3385 45.0144C33.0824 43.758 33.0824 41.7199 34.3385 40.4636C35.5947 39.208 37.2146 39.6224 38.8883 40.4636C40.5551 41.3013 47.9082 44.9833 47.9703 45.0144C47.9703 45.0144 68.1628 22.345 69.1676 20.8796Z" fill="#E84420"/>
</svg>
