<svg width="69" height="98" viewBox="0 0 69 98" fill="none" xmlns="http://www.w3.org/2000/svg">
<path d="M32.4844 73.0945L47.0977 87.0388V96.9304C47.0977 97.712 46.1488 98.099 45.5967 97.5495L34.6797 86.6882C34.6413 86.6504 34.5996 86.617 34.5566 86.5876L34.0605 86.07L21.0205 74.403V73.9695C21.0205 73.4858 21.4134 73.0945 21.8994 73.0945H32.4844ZM31.1943 88.9177L22.5215 97.5495C21.9655 98.099 21.0205 97.7081 21.0205 96.9304V79.8152L31.1943 88.9177ZM46.2188 73.0945C46.7048 73.0945 47.0977 73.4858 47.0977 73.9695V81.4626L38.3281 73.0945H46.2188Z" fill="#F0A698"/>
<circle cx="34.0587" cy="33.6812" r="5.6774" fill="#E84420"/>
<path d="M34.0552 6.23258L41.6263 2.65384L46.6621 9.32903L55.0339 9.65755L56.3754 17.8915L63.6375 22.0573L60.9756 29.9697L65.4636 37.0224L59.4165 42.7959L60.0907 51.1067L52.042 53.4273L48.762 61.102L40.5447 59.4314L34.0552 64.7087L27.5656 59.4314L19.3553 61.102L16.0754 53.4273L8.01964 51.1067L8.70091 42.7959L2.65381 37.0224L7.1347 29.9697L4.47988 22.0573L11.742 17.8915L13.0764 9.65755L21.4553 9.32903L26.484 2.65384L34.0552 6.23258Z" stroke="#E84420" stroke-width="5.30726" stroke-miterlimit="10" stroke-linejoin="round"/>
</svg>
