<svg width="81" height="79" viewBox="0 0 81 79" fill="none" xmlns="http://www.w3.org/2000/svg">
<path d="M32.917 18.611C34.7468 18.6114 36.2307 20.0949 36.2307 21.9248C36.2307 23.7547 34.7468 25.2382 32.917 25.2386H30.4368C24.2143 25.2386 19.17 30.2829 19.17 36.5054V48.3495C19.17 54.572 24.2143 59.6163 30.4368 59.6163H42.281C48.5029 59.616 53.5474 54.5728 53.5478 48.3508V45.1289C53.5478 43.299 55.0317 41.8155 56.8615 41.8152C58.6914 41.8155 60.1766 43.299 60.1766 45.1289V48.3508C60.1762 58.2331 52.1632 66.2448 42.281 66.2452H30.4368C20.5541 66.2452 12.5425 58.2323 12.5425 48.3495V36.5054C12.5425 26.6226 20.5541 18.611 30.4368 18.611H32.917Z" fill="#E84420"/>
<path d="M63.6638 12.1647C66.2258 12.165 68.3031 14.242 68.3031 16.804V29.7212C68.3024 34.8048 61.3042 36.1855 59.3727 31.483L57.6227 27.223L46.4063 38.3526C45.1072 39.6414 43.0094 39.6334 41.7205 38.3344C40.432 37.0353 40.4397 34.9374 41.7386 33.6486L52.8643 22.6096L49.0302 21.1326C44.2334 19.2837 45.5576 12.1647 50.6987 12.1647H63.6638Z" fill="#E84420"/>
</svg>
