<svg width="50" height="64" viewBox="0 0 50 64" fill="none" xmlns="http://www.w3.org/2000/svg">
<path d="M24.5693 0C38.138 0.000193521 49.1375 10.9997 49.1377 24.5684C49.1377 31.7904 46.0207 38.2839 41.0596 42.7793L27.9951 61.8955C26.3079 64.3639 22.6686 64.3705 20.9727 61.9082L7.36816 42.1572L7.4248 42.1641C2.84534 37.7013 0 31.4676 0 24.5684C0.000192757 10.9996 11.0005 0 24.5693 0ZM24.5693 5.97363C14.2995 5.97363 5.97383 14.2985 5.97363 24.5684C5.97363 34.8384 14.2993 43.1641 24.5693 43.1641C34.8392 43.1639 43.1641 34.8383 43.1641 24.5684C43.1639 14.2986 34.8391 5.97379 24.5693 5.97363ZM24.5693 17.8125C28.3006 17.8127 31.3252 20.838 31.3252 24.5693C31.3251 28.3006 28.3006 31.3249 24.5693 31.3252C20.8379 31.3252 17.8126 28.3008 17.8125 24.5693C17.8125 20.8378 20.8378 17.8125 24.5693 17.8125Z" fill="#E84420"/>
</svg>
